{
  "accessors": [
    {
      "bufferView": 2,
      "componentType": 5126,
      "count": 65532,
      "max": [
        5.502462863922119,
        5.117415904998779,
        0.6839101314544678
      ],
      "min": [
        0.5158559679985046,
        0.0,
        0.20076513290405273
      ],
      "type": "VEC3"
    },
    {
      "bufferView": 2,
      "byteOffset": 786384,
      "componentType": 5126,
      "count": 65532,
      "max": [
        0.9999920725822449,
        0.9985114932060242,
        0.999600887298584
      ],
      "min": [
        -0.9991762042045593,
        -0.9999644160270691,
        -0.9999931454658508
      ],
      "type": "VEC3"
    },
    {
      "bufferView": 3,
      "componentType": 5126,
      "count": 65532,
      "max": [
        0.7529410123825073,
        0.7529410123825073,
        0.7529410123825073,
        1.0
      ],
      "min": [
        0.7529410123825073,
        0.7529410123825073,
        0.7529410123825073,
        1.0
      ],
      "type": "VEC4"
    },
    {
      "bufferView": 1,
      "componentType": 5126,
      "count": 65532,
      "max": [
        0.9994750022888184,
        0.9942839741706848
      ],
      "min": [
        0.0,
        0.0
      ],
      "type": "VEC2"
    },
    {
      "bufferView": 0,
      "componentType": 5125,
      "count": 309423,
      "type": "SCALAR"
    },
    {
      "bufferView": 2,
      "byteOffset": 1572768,
      "componentType": 5126,
      "count": 65532,
      "max": [
        4.129395961761475,
        4.5997138023376465,
        0.6165821552276611
      ],
      "min": [
        0.0,
        0.0,
        0.1844191551208496
      ],
      "type": "VEC3"
    },
    {
      "bufferView": 2,
      "byteOffset": 2359152,
      "componentType": 5126,
      "count": 65532,
      "max": [
        0.9998347759246826,
        0.9998837113380432,
        0.9960535764694214
      ],
      "min": [
        -0.9999858140945435,
        -0.9999611377716064,
        -0.9999990463256836
      ],
      "type": "VEC3"
    },
    {
      "bufferView": 3,
      "byteOffset": 1048512,
      "componentType": 5126,
      "count": 65532,
      "max": [
        0.7529410123825073,
        0.7529410123825073,
        0.7529410123825073,
        1.0
      ],
      "min": [
        0.7529410123825073,
        0.7529410123825073,
        0.7529410123825073,
        1.0
      ],
      "type": "VEC4"
    },
    {
      "bufferView": 1,
      "byteOffset": 524256,
      "componentType": 5126,
      "count": 65532,
      "max": [
        0.9995179772377014,
        0.9942619800567627
      ],
      "min": [
        0.0,
        0.0
      ],
      "type": "VEC2"
    },
    {
      "bufferView": 0,
      "byteOffset": 1237692,
      "componentType": 5125,
      "count": 306597,
      "type": "SCALAR"
    },
    {
      "bufferView": 2,
      "byteOffset": 3145536,
      "componentType": 5126,
      "count": 65532,
      "max": [
        2.923182964324951,
        5.502461910247803,
        0.5091099739074707
      ],
      "min": [
        0.0,
        0.9132237434387207,
        0.0
      ],
      "type": "VEC3"
    },
    {
      "bufferView": 2,
      "byteOffset": 3931920,
      "componentType": 5126,
      "count": 65532,
      "max": [
        0.9998561143875122,
        0.999596357345581,
        0.9892187118530273
      ],
      "min": [
        -0.9999328851699829,
        -0.9994542002677917,
        -0.9999964833259583
      ],
      "type": "VEC3"
    },
    {
      "bufferView": 3,
      "byteOffset": 2097024,
      "componentType": 5126,
      "count": 65532,
      "max": [
        0.7529410123825073,
        0.7529410123825073,
        0.7529410123825073,
        1.0
      ],
      "min": [
        0.7529410123825073,
        0.7529410123825073,
        0.7529410123825073,
        1.0
      ],
      "type": "VEC4"
    },
    {
      "bufferView": 1,
      "byteOffset": 1048512,
      "componentType": 5126,
      "count": 65532,
      "max": [
        0.9992859959602356,
        0.9940609931945801
      ],
      "min": [
        0.0,
        0.0
      ],
      "type": "VEC2"
    },
    {
      "bufferView": 0,
      "byteOffset": 2464080,
      "componentType": 5125,
      "count": 288810,
      "type": "SCALAR"
    },
    {
      "bufferView": 2,
      "byteOffset": 4718304,
      "componentType": 5126,
      "count": 65532,
      "max": [
        2.869590997695923,
        5.502461910247803,
        0.6503551006317139
      ],
      "min": [
        0.0,
        0.0,
        0.01465916633605957
      ],
      "type": "VEC3"
    },
    {
      "bufferView": 2,
      "byteOffset": 5504688,
      "componentType": 5126,
      "count": 65532,
      "max": [
        0.9998347759246826,
        0.9999833106994629,
        0.9240105748176575
      ],
      "min": [
        -0.9999831318855286,
        -0.9995333552360535,
        -0.999987781047821
      ],
      "type": "VEC3"
    },
    {
      "bufferView": 3,
      "byteOffset": 3145536,
      "componentType": 5126,
      "count": 65532,
      "max": [
        0.7529410123825073,
        0.7529410123825073,
        0.7529410123825073,
        1.0
      ],
      "min": [
        0.7529410123825073,
        0.7529410123825073,
        0.7529410123825073,
        1.0
      ],
      "type": "VEC4"
    },
    {
      "bufferView": 1,
      "byteOffset": 1572768,
      "componentType": 5126,
      "count": 65532,
      "max": [
        0.9995160102844238,
        0.9942150115966797
      ],
      "min": [
        0.0,
        0.0
      ],
      "type": "VEC2"
    },
    {
      "bufferView": 0,
      "byteOffset": 3619320,
      "componentType": 5125,
      "count": 279102,
      "type": "SCALAR"
    },
    {
      "bufferView": 2,
      "byteOffset": 6291072,
      "componentType": 5126,
      "count": 65532,
      "max": [
        4.47075080871582,
        5.502461910247803,
        0.6712870597839355
      ],
      "min": [
        2.0634241104125977,
        0.5158548355102539,
        0.051254987716674805
      ],
      "type": "VEC3"
    },
    {
      "bufferView": 2,
      "byteOffset": 7077456,
      "componentType": 5126,
      "count": 65532,
      "max": [
        0.999995768070221,
        0.9999812841415405,
        0.9876718521118164
      ],
      "min": [
        -0.9995628595352173,
        -0.9996219873428345,
        -1.0
      ],
      "type": "VEC3"
    },
    {
      "bufferView": 3,
      "byteOffset": 4194048,
      "componentType": 5126,
      "count": 65532,
      "max": [
        0.7529410123825073,
        0.7529410123825073,
        0.7529410123825073,
        1.0
      ],
      "min": [
        0.7529410123825073,
        0.7529410123825073,
        0.7529410123825073,
        1.0
      ],
      "type": "VEC4"
    },
    {
      "bufferView": 1,
      "byteOffset": 2097024,
      "componentType": 5126,
      "count": 65532,
      "max": [
        0.9994980096817017,
        0.9941070079803467
      ],
      "min": [
        0.0,
        0.0
      ],
      "type": "VEC2"
    },
    {
      "bufferView": 0,
      "byteOffset": 4735728,
      "componentType": 5125,
      "count": 293577,
      "type": "SCALAR"
    },
    {
      "bufferView": 2,
      "byteOffset": 7863840,
      "componentType": 5126,
      "count": 65532,
      "max": [
        5.502462863922119,
        5.502461910247803,
        0.5573101043701172
      ],
      "min": [
        2.749631881713867,
        0.3439040184020996,
        0.018294095993041992
      ],
      "type": "VEC3"
    },
    {
      "bufferView": 2,
      "byteOffset": 8650224,
      "componentType": 5126,
      "count": 65532,
      "max": [
        0.9999904036521912,
        0.9998975992202759,
        0.9981903433799744
      ],
      "min": [
        -0.9995473623275757,
        -0.999970018863678,
        -1.0
      ],
      "type": "VEC3"
    },
    {
      "bufferView": 3,
      "byteOffset": 5242560,
      "componentType": 5126,
      "count": 65532,
      "max": [
        0.7529410123825073,
        0.7529410123825073,
        0.7529410123825073,
        1.0
      ],
      "min": [
        0.7529410123825073,
        0.7529410123825073,
        0.7529410123825073,
        1.0
      ],
      "type": "VEC4"
    },
    {
      "bufferView": 1,
      "byteOffset": 2621280,
      "componentType": 5126,
      "count": 65532,
      "max": [
        0.9993969798088074,
        0.9941200017929077
      ],
      "min": [
        0.0,
        0.0
      ],
      "type": "VEC2"
    },
    {
      "bufferView": 0,
      "byteOffset": 5910036,
      "componentType": 5125,
      "count": 274749,
      "type": "SCALAR"
    },
    {
      "bufferView": 2,
      "byteOffset": 9436608,
      "componentType": 5126,
      "count": 22203,
      "max": [
        5.502462863922119,
        4.384774208068848,
        0.640347957611084
      ],
      "min": [
        2.7512309551239014,
        1.3789620399475098,
        0.35859203338623047
      ],
      "type": "VEC3"
    },
    {
      "bufferView": 2,
      "byteOffset": 9703044,
      "componentType": 5126,
      "count": 22203,
      "max": [
        0.9990249872207642,
        0.9990226626396179,
        0.9964035749435425
      ],
      "min": [
        -0.999750018119812,
        -0.9989354610443115,
        -0.9999785423278809
      ],
      "type": "VEC3"
    },
    {
      "bufferView": 3,
      "byteOffset": 6291072,
      "componentType": 5126,
      "count": 22203,
      "max": [
        0.7529410123825073,
        0.7529410123825073,
        0.7529410123825073,
        1.0
      ],
      "min": [
        0.7529410123825073,
        0.7529410123825073,
        0.7529410123825073,
        1.0
      ],
      "type": "VEC4"
    },
    {
      "bufferView": 1,
      "byteOffset": 3145536,
      "componentType": 5126,
      "count": 22203,
      "max": [
        0.9993820190429688,
        0.9943029880523682
      ],
      "min": [
        0.0,
        0.0
      ],
      "type": "VEC2"
    },
    {
      "bufferView": 0,
      "byteOffset": 7009032,
      "componentType": 5125,
      "count": 94179,
      "type": "SCALAR"
    }
  ],
  "asset": {
    "extras": {
      "author": "John Fino (tauricity) (https://sketchfab.com/tauricity)",
      "license": "CC-BY-4.0 (http://creativecommons.org/licenses/by/4.0/)",
      "source": "https://sketchfab.com/3d-models/coffee-beans-visualsfm-e6afbb3278ce4ab48b8316f1c1444cc1",
      "title": "Coffee Beans - VisualSFM"
    },
    "generator": "Sketchfab-12.66.0",
    "version": "2.0"
  },
  "bufferViews": [
    {
      "buffer": 0,
      "byteLength": 7385748,
      "name": "floatBufferViews",
      "target": 34963
    },
    {
      "buffer": 0,
      "byteLength": 3323160,
      "byteOffset": 7385748,
      "byteStride": 8,
      "name": "floatBufferViews",
      "target": 34962
    },
    {
      "buffer": 0,
      "byteLength": 9969480,
      "byteOffset": 10708908,
      "byteStride": 12,
      "name": "floatBufferViews",
      "target": 34962
    },
    {
      "buffer": 0,
      "byteLength": 6646320,
      "byteOffset": 20678388,
      "byteStride": 16,
      "name": "floatBufferViews",
      "target": 34962
    }
  ],
  "buffers": [
    {
      "byteLength": 27324708,
      "uri": "scene.bin"
    }
  ],
  "extensionsUsed": [
    "KHR_materials_unlit"
  ],
  "images": [
    {
      "uri": "textures/material_0_baseColor.png"
    }
  ],
  "materials": [
    {
      "doubleSided": true,
      "extensions": {
        "KHR_materials_unlit": {}
      },
      "name": "material_0",
      "pbrMetallicRoughness": {
        "baseColorTexture": {
          "index": 0
        },
        "metallicFactor": 0.0
      }
    }
  ],
  "meshes": [
    {
      "name": "Object_0",
      "primitives": [
        {
          "attributes": {
            "COLOR_0": 2,
            "NORMAL": 1,
            "POSITION": 0,
            "TEXCOORD_0": 3
          },
          "indices": 4,
          "material": 0,
          "mode": 4
        }
      ]
    },
    {
      "name": "Object_1",
      "primitives": [
        {
          "attributes": {
            "COLOR_0": 7,
            "NORMAL": 6,
            "POSITION": 5,
            "TEXCOORD_0": 8
          },
          "indices": 9,
          "material": 0,
          "mode": 4
        }
      ]
    },
    {
      "name": "Object_2",
      "primitives": [
        {
          "attributes": {
            "COLOR_0": 12,
            "NORMAL": 11,
            "POSITION": 10,
            "TEXCOORD_0": 13
          },
          "indices": 14,
          "material": 0,
          "mode": 4
        }
      ]
    },
    {
      "name": "Object_3",
      "primitives": [
        {
          "attributes": {
            "COLOR_0": 17,
            "NORMAL": 16,
            "POSITION": 15,
            "TEXCOORD_0": 18
          },
          "indices": 19,
          "material": 0,
          "mode": 4
        }
      ]
    },
    {
      "name": "Object_4",
      "primitives": [
        {
          "attributes": {
            "COLOR_0": 22,
            "NORMAL": 21,
            "POSITION": 20,
            "TEXCOORD_0": 23
          },
          "indices": 24,
          "material": 0,
          "mode": 4
        }
      ]
    },
    {
      "name": "Object_5",
      "primitives": [
        {
          "attributes": {
            "COLOR_0": 27,
            "NORMAL": 26,
            "POSITION": 25,
            "TEXCOORD_0": 28
          },
          "indices": 29,
          "material": 0,
          "mode": 4
        }
      ]
    },
    {
      "name": "Object_6",
      "primitives": [
        {
          "attributes": {
            "COLOR_0": 32,
            "NORMAL": 31,
            "POSITION": 30,
            "TEXCOORD_0": 33
          },
          "indices": 34,
          "material": 0,
          "mode": 4
        }
      ]
    }
  ],
  "nodes": [
    {
      "children": [
        1
      ],
      "matrix": [
        -0.0018129918869093653,
        0.00026444761258999816,
        -0.11427362825825682,
        0.0,
        0.11408636323262833,
        -0.006541356296227152,
        -0.0018251585361565307,
        0.0,
        -0.006544738511040704,
        -0.11410065504869848,
        -0.00016021273552378515,
        0.0,
        5.774468421936035,
        6.462517738342284,
        5.505474090576174,
        1.0
      ],
      "name": "Sketchfab_model"
    },
    {
      "children": [
        2
      ],
      "matrix": [
        1.0,
        0.0,
        0.0,
        0.0,
        0.0,
        1.0,
        0.0,
        0.0,
        0.0,
        0.0,
        1.0,
        0.0,
        -1.2824159860610962,
        -6.84881591796875,
        3.0110249519348145,
        1.0
      ],
      "name": "CoffeeBeans_615k.obj.cleaner.gles"
    },
    {
      "children": [
        3,
        4,
        5,
        6,
        7,
        8,
        9
      ],
      "name": "Object_2"
    },
    {
      "mesh": 0,
      "name": "Object_3"
    },
    {
      "mesh": 1,
      "name": "Object_4"
    },
    {
      "mesh": 2,
      "name": "Object_5"
    },
    {
      "mesh": 3,
      "name": "Object_6"
    },
    {
      "mesh": 4,
      "name": "Object_7"
    },
    {
      "mesh": 5,
      "name": "Object_8"
    },
    {
      "mesh": 6,
      "name": "Object_9"
    }
  ],
  "samplers": [
    {
      "magFilter": 9729,
      "minFilter": 9987,
      "wrapS": 10497,
      "wrapT": 10497
    }
  ],
  "scene": 0,
  "scenes": [
    {
      "name": "Sketchfab_Scene",
      "nodes": [
        0
      ]
    }
  ],
  "textures": [
    {
      "sampler": 0,
      "source": 0
    }
  ]
}
