{
  "accessors": [
    {
      "bufferView": 2,
      "componentType": 5126,
      "count": 29623,
      "max": [
        0.2626523971557617,
        0.6590299606323242,
        0.9102093577384949
      ],
      "min": [
        -0.37612053751945496,
        -0.8604031205177307,
        -0.3236987888813019
      ],
      "type": "VEC3"
    },
    {
      "bufferView": 2,
      "byteOffset": 355476,
      "componentType": 5126,
      "count": 29623,
      "max": [
        0.9999971389770508,
        0.999891459941864,
        0.99994295835495
      ],
      "min": [
        -0.9999896287918091,
        -0.9995570182800293,
        -0.9999563694000244
      ],
      "type": "VEC3"
    },
    {
      "bufferView": 1,
      "componentType": 5126,
      "count": 29623,
      "max": [
        0.9855145812034607,
        0.9999880194664001
      ],
      "min": [
        0.0,
        0.0
      ],
      "type": "VEC2"
    },
    {
      "bufferView": 0,
      "componentType": 5125,
      "count": 167310,
      "type": "SCALAR"
    }
  ],
  "asset": {
    "extras": {
      "author": "virtualtimecapsule (https://sketchfab.com/virtualtimecapsule)",
      "license": "CC-BY-NC-ND-4.0 (http://creativecommons.org/licenses/by-nc-nd/4.0/)",
      "source": "https://sketchfab.com/3d-models/oat-milk-oatly-00dd2ae93cf34beb8ef07186b9e8f340",
      "title": "Oat milk (Oatly)"
    },
    "generator": "Sketchfab-12.66.0",
    "version": "2.0"
  },
  "bufferViews": [
    {
      "buffer": 0,
      "byteLength": 669240,
      "name": "floatBufferViews",
      "target": 34963
    },
    {
      "buffer": 0,
      "byteLength": 236984,
      "byteOffset": 669240,
      "byteStride": 8,
      "name": "floatBufferViews",
      "target": 34962
    },
    {
      "buffer": 0,
      "byteLength": 710952,
      "byteOffset": 906224,
      "byteStride": 12,
      "name": "floatBufferViews",
      "target": 34962
    }
  ],
  "buffers": [
    {
      "byteLength": 1617176,
      "uri": "scene.bin"
    }
  ],
  "images": [
    {
      "uri": "textures/material0_baseColor.jpeg"
    }
  ],
  "materials": [
    {
      "doubleSided": true,
      "name": "material0",
      "pbrMetallicRoughness": {
        "baseColorTexture": {
          "index": 0
        },
        "metallicFactor": 0.0,
        "roughnessFactor": 0.9577051494623774
      }
    }
  ],
  "meshes": [
    {
      "name": "Model_material0_0",
      "primitives": [
        {
          "attributes": {
            "NORMAL": 1,
            "POSITION": 0,
            "TEXCOORD_0": 2
          },
          "indices": 3,
          "material": 0,
          "mode": 4
        }
      ]
    }
  ],
  "nodes": [
    {
      "children": [
        1
      ],
      "matrix": [
        0.10787504720155994,
        -0.002076603670125553,
        -0.10485786532074215,
        0.0,
        -0.056366199558413044,
        0.12570532075535823,
        -0.06047754895583954,
        0.0,
        0.08844397153385586,
        0.08264605219725495,
        0.08935212940683003,
        0.0,
        0.34751760959625244,
        0.48372659087181086,
        0.2286873757839204,
        1.0
      ],
      "name": "Sketchfab_model"
    },
    {
      "children": [
        2
      ],
      "matrix": [
        1.0,
        0.0,
        0.0,
        0.0,
        0.0,
        -1.0,
        0.0,
        0.0,
        0.0,
        0.0,
        -1.0,
        0.0,
        0.0,
        0.0,
        0.0,
        1.0
      ],
      "name": "model.fbx"
    },
    {
      "children": [
        3
      ],
      "name": "RootNode"
    },
    {
      "children": [
        4
      ],
      "name": "Model"
    },
    {
      "mesh": 0,
      "name": "Model_material0_0"
    }
  ],
  "samplers": [
    {
      "magFilter": 9729,
      "minFilter": 9987,
      "wrapS": 10497,
      "wrapT": 10497
    }
  ],
  "scene": 0,
  "scenes": [
    {
      "name": "Sketchfab_Scene",
      "nodes": [
        0
      ]
    }
  ],
  "textures": [
    {
      "sampler": 0,
      "source": 0
    }
  ]
}
